<?xml version="1.0" standalone="no"?><!DOCTYPE svg PUBLIC "-//W3C//DTD SVG 1.1//EN" "http://www.w3.org/Graphics/SVG/1.1/DTD/svg11.dtd"><svg t="1525855423650" class="icon" style="" viewBox="0 0 1024 1024" version="1.1" xmlns="http://www.w3.org/2000/svg" p-id="3244" xmlns:xlink="http://www.w3.org/1999/xlink" width="200" height="200"><defs><style type="text/css"></style></defs><path d="M787.2 275.2l0-64L832 211.2 832 64 192 64l0 147.2 44.8 0 0 64c0 102.4 57.6 192 134.4 236.8-83.2 51.2-134.4 134.4-134.4 236.8l0 64L192 812.8 192 960l640 0 0-147.2-44.8 0 0-64c0-102.4-57.6-192-134.4-236.8C729.6 460.8 787.2 377.6 787.2 275.2zM710.4 748.8l0 64L313.6 812.8l0-64C313.6 640 403.2 550.4 512 550.4 620.8 550.4 710.4 640 710.4 748.8zM512 473.6C403.2 473.6 313.6 384 313.6 275.2l0-64 396.8 0 0 64C710.4 384 620.8 473.6 512 473.6z" p-id="3245"></path></svg>